<svg xmlns="http://www.w3.org/2000/svg" viewBox="0 0 64 64" width="64" height="64">
  <defs>
    <linearGradient id="bg" x1="0" y1="0" x2="64" y2="64" gradientUnits="userSpaceOnUse">
      <stop offset="0" stop-color="#0c0e1a"/>
      <stop offset="1" stop-color="#06070d"/>
    </linearGradient>
    <linearGradient id="mark" x1="0" y1="0" x2="64" y2="64" gradientUnits="userSpaceOnUse">
      <stop offset="0" stop-color="#7c5cff"/>
      <stop offset="1" stop-color="#22d3ee"/>
    </linearGradient>
  </defs>
  <rect x="0" y="0" width="64" height="64" rx="14" fill="url(#bg)"/>
  <rect x="0.5" y="0.5" width="63" height="63" rx="13.5" fill="none" stroke="#7c5cff" stroke-opacity="0.35"/>
  <path d="M14 50 L23.5 14 L29.5 14 L39 50 L33.2 50 L30.8 41 L22.2 41 L19.8 50 Z M23.5 36 L29.5 36 L26.5 25 Z" fill="url(#mark)"/>
  <path d="M42 14 L42 50 L47 50 L47 36 L51.5 36 C56.7 36 60.5 31.3 60.5 25 C60.5 18.7 56.7 14 51.5 14 Z M47 19 L50.5 19 C53.7 19 55.5 21.8 55.5 25 C55.5 28.2 53.7 31 50.5 31 L47 31 Z" fill="url(#mark)"/>
  <rect x="14" y="55" width="46" height="2" rx="1" fill="url(#mark)" opacity="0.7"/>
</svg>
